The Stool Pigeon (2010) 1080p MKV x264 AC3+DTS Eng NL Subs
.
[IMG]http://img705.imageshack.us/img705/8365/thestoolpigeoncoverokla.jpg[/IMG]
.
Hongkong
Actie / Drama
113 minuten

geregisseerd door Dante Lam
met Nicholas Tse, Lunmei Kwai en Yi Lu

Inspecteur Don Lee vertrouwt voor zijn werk in grote mate op informanten. Wanneer een zeer precieze gewapende overvaller de stad terroriseert heeft Don iemand nodig die infiltreert. Zijn keuze valt op straatracer Guy, die hem echter geen concrete informatie kan geven, en zelfs met een nieuwe identiteit het land uit moet vluchten. Don Lee blijft gedesillusioneerd achter in deze wereld vol verraad.
. 
http://www.moviemeter.nl/film/68567
.
PLOT
.
Policeman Don Lee often works with informants but numerous too-close calls and failed missions cause him to see the world as one betrayal after another - then he meets Guy, and is given a new chance to change his views.
. 
http://www.imdb.com/title/tt1535492/
.
INFO
.

Format                           : Matroska
Format version                   : Version 2
File size                        : 9.22 GiB
Duration                         : 1h 52mn
Overall bit rate                 : 11.8 Mbps
Encoded date                     : UTC 2011-12-24 06:17:56
Writing application              : mkvmerge v5.0.1 ('Es ist Sommer') built on Oct  9 2011 11:55:43
Writing library                  : libebml v1.2.2 + libmatroska v1.3.0

Video
ID                               : 1
Format                           : AVC
Format/Info                      : Advanced Video Codec
Format profile                   : High@L4.1
Format settings, CABAC           : Yes
Format settings, ReFrames        : 5 frames
Codec ID                         : V_MPEG4/ISO/AVC
Duration                         : 1h 52mn
Bit rate                         : 8 972 Kbps
Width                            : 1 920 pixels
Height                           : 816 pixels
Display aspect ratio             : 2.35:1
Frame rate                       : 24.000 fps
Color space                      : YUV
Chroma subsampling               : 4:2:0
Bit depth                        : 8 bits
Scan type                        : Progressive
Bits/(Pixel*Frame)               : 0.239
Stream size                      : 6.85 GiB (74%)
Writing library                  : x264 core 107 r1745 4785e8e
Encoding settings                : cabac=1 / ref=5 / deblock=1:-3:-3 / analyse=0x3:0x113 / me=umh / subme=9 / psy=1 / psy_rd=1.05:0.10 / mixed_ref=1 / me_range=48 / chroma_me=1 / trellis=2 / 8x8dct=1 / cqm=2 / deadzone=21,11 / fast_pskip=0 / chroma_qp_offset=-2 / threads=12 / sliced_threads=0 / nr=0 / decimate=1 / interlaced=0 / constrained_intra=0 / bframes=6 / b_pyramid=2 / b_adapt=2 / b_bias=0 / direct=3 / weightb=1 / open_gop=0 / weightp=2 / keyint=250 / keyint_min=24 / scenecut=40 / intra_refresh=0 / rc_lookahead=50 / rc=2pass / mbtree=1 / bitrate=8972 / ratetol=2.0 / qcomp=0.70 / qpmin=10 / qpmax=51 / qpstep=4 / cplxblur=20.0 / qblur=0.5 / vbv_maxrate=50000 / vbv_bufsize=50000 / ip_ratio=1.40 / aq=1:1.00 / nal_hrd=none
Language                         : English

Audio #1
ID                               : 2
Format                           : DTS
Format/Info                      : Digital Theater Systems
Codec ID                         : A_DTS
Duration                         : 1h 52mn
Bit rate mode                    : Constant
Bit rate                         : 1 510 Kbps
Channel(s)                       : 6 channels
Channel positions                : Front: L C R, Side: L R, LFE
Sampling rate                    : 48.0 KHz
Bit depth                        : 24 bits
Compression mode                 : Lossy
Stream size                      : 1.18 GiB (13%)
Title                            : Cantonese DTSHD core 5.1 1536k
Language                         : Chinese

Audio #2
ID                               : 3
Format                           : AC-3
Format/Info                      : Audio Coding 3
Mode extension                   : CM (complete main)
Codec ID                         : A_AC3
Duration                         : 1h 52mn
Bit rate mode                    : Constant
Bit rate                         : 640 Kbps
Channel(s)                       : 6 channels
Channel positions                : Front: L C R, Side: L R, LFE
Sampling rate                    : 48.0 KHz
Bit depth                        : 16 bits
Compression mode                 : Lossy
Stream size                      : 513 MiB (5%)
Title                            : Mandarin AC3
Language                         : Chinese

Audio #3
ID                               : 4
Format                           : AC-3
Format/Info                      : Audio Coding 3
Mode extension                   : CM (complete main)
Codec ID                         : A_AC3
Duration                         : 1h 52mn
Bit rate mode                    : Constant
Bit rate                         : 640 Kbps
Channel(s)                       : 6 channels
Channel positions                : Front: L C R, Side: L R, LFE
Sampling rate                    : 48.0 KHz
Bit depth                        : 16 bits
Compression mode                 : Lossy
Stream size                      : 513 MiB (5%)
Title                            : Cantonese AC3
Language                         : Chinese

Text #1
ID                               : 5
Format                           : UTF-8
Codec ID                         : S_TEXT/UTF8
Codec ID/Info                    : UTF-8 Plain Text
Title                            : Nederlands
Language                         : Dutch

Text #2
ID                               : 6
Format                           : VobSub
Codec ID                         : S_VOBSUB
Codec ID/Info                    : The same subtitle format used on DVDs
Title                            : English Vobsub
Language                         : English
.
NL Vertaling: SRT-Team
.
Enjoy
